<?xml version="1.0" encoding="UTF-8"?>
<svg id="a" width="2560" height="392" version="1.1" viewBox="0 0 2560.0001 392" xmlns="http://www.w3.org/2000/svg">
 <rect y="-27.169857" width="272.89001" height="80" fill="none"/>
 <g transform="translate(0,-27.169856)">
  <g transform="matrix(15.052014,0,0,15.052014,0,-381.79213)" fill="#0041c0">
   <path d="m168.2 50.19c-1.37 1.44-2.92 2.3-4.87 2.69-1.32 0.27-2.47 0.32-3.8 0.18-1.77-0.18-3.23-0.75-4.66-1.82-1.16-0.87-2-1.81-2.73-3.07-0.56-0.98-0.89-1.89-1.07-3-0.26-1.54-0.19-2.9 0.22-4.4 0.93-3.43 3.5-5.86 6.98-6.58 1.98-0.41 3.75-0.37 5.71 0.14 1.4 0.36 2.51 0.97 3.57 1.95 0.67 0.62 1.14 1.24 1.56 2.05 0.5 0.95 0.7 1.88 0.64 2.95h-6.2c-0.14-0.83-0.53-1.49-1.2-2-0.87-0.66-1.99-0.71-2.91-0.14-0.63 0.39-1.05 0.93-1.27 1.64-0.53 1.69-0.56 3.27-0.08 4.98 0.2 0.72 0.54 1.28 1.08 1.8 0.62 0.59 1.39 0.83 2.24 0.71 0.53-0.08 0.95-0.31 1.31-0.7 0.37-0.41 0.58-0.85 0.68-1.4 0.07-0.38 0.11-0.71 0.13-1.1h6.53c0.13 1.97-0.49 3.7-1.85 5.13"/>
   <rect x="143.21001" y="27.17" width="6.7800002" height="4.79"/>
   <rect x="143.21001" y="34.419998" width="6.7800002" height="18.129999"/>
   <path d="m129.17 36.34c0.89-0.78 1.74-1.33 2.82-1.83 1.75-0.81 3.5-0.94 5.36-0.4 1.99 0.58 3.42 1.98 4.05 3.95 0.3 0.95 0.43 1.79 0.43 2.79v11.7h-7.2v-10.52c0-0.35-0.04-0.65-0.15-0.99-0.19-0.61-0.58-1.05-1.17-1.3-1.28-0.54-2.73-0.06-3.43 1.13-0.29 0.5-0.43 0.99-0.43 1.57v10.1h-6.97v-18.13h6.54l0.15 1.92"/>
   <path d="m48.99 36.34c0.89-0.78 1.74-1.33 2.82-1.83 1.75-0.81 3.5-0.94 5.35-0.4 1.99 0.58 3.42 1.98 4.05 3.95 0.3 0.95 0.43 1.79 0.43 2.79v11.7h-7.2v-10.52c0-0.35-0.04-0.65-0.15-0.99-0.19-0.61-0.59-1.05-1.17-1.3-1.28-0.54-2.73-0.06-3.43 1.13-0.29 0.5-0.43 0.99-0.43 1.57v10.1h-6.97v-18.13h6.54l0.15 1.92"/>
   <path d="m91.72 45.88c0.52 0.09 0.95 0.2 1.45 0.36 0.42 0.14 0.7 0.46 0.79 0.89 0.1 0.47-0.03 0.91-0.37 1.25s-0.73 0.54-1.21 0.62c-0.64 0.1-1.21 0.05-1.82-0.17-0.3-0.11-0.53-0.24-0.77-0.44-0.31-0.26-0.51-0.56-0.63-0.95-0.1-0.33-0.14-0.62-0.14-0.97h-6.64v0.39c0 0.62 0.1 1.15 0.32 1.74 0.33 0.88 0.79 1.56 1.48 2.2 0.9 0.84 1.84 1.37 3.02 1.7 2.45 0.7 4.67 0.84 7.19 0.45 1.18-0.18 2.16-0.5 3.22-1.05 0.47-0.24 0.84-0.49 1.25-0.83 1.79-1.51 2.46-3.8 1.74-6.03-0.27-0.84-0.7-1.49-1.37-2.07-0.92-0.79-1.84-1.3-3-1.64-0.26-0.07-0.47-0.14-0.73-0.21-1.42-0.4-2.64-0.66-4.1-0.87-0.39-0.06-0.72-0.12-1.11-0.21-0.18-0.04-0.33-0.09-0.49-0.17-0.41-0.18-0.59-0.66-0.4-1.07 0-0.02 0.02-0.04 0.03-0.06 0.22-0.39 0.54-0.65 0.97-0.77 0.76-0.22 1.46-0.2 2.2 0.05 0.71 0.24 1.16 0.9 1.13 1.65h6.4c0-0.79-0.12-1.45-0.39-2.19-0.27-0.75-0.68-1.32-1.31-1.81-0.55-0.43-1.06-0.73-1.71-0.98-0.63-0.24-1.19-0.4-1.86-0.51-1.58-0.28-2.95-0.35-4.55-0.26-0.92 0.05-1.69 0.17-2.59 0.38-1.21 0.28-2.18 0.75-3.16 1.52-0.83 0.65-1.37 1.41-1.72 2.41-0.16 0.45-0.23 0.85-0.25 1.33-0.03 0.79 0.08 1.47 0.37 2.21 0.53 1.33 1.46 2.26 2.79 2.79 0.67 0.27 1.26 0.44 1.97 0.59 1.4 0.29 2.58 0.51 3.98 0.75"/>
   <path d="m0 27.169922v25.380859h7.6992188v-7.820312h4.6601562c1.219999 0 2.239689-0.111094 3.429687-0.371094 3.579997-0.789999 6.131251-3.619535 6.53125-7.269531 0.19-1.729999-0.06078-3.240314-0.800781-4.820313-1.419998-3.019997-4.169769-4.878594-7.509765-5.058593-0.5-0.03-0.919923-0.04102-1.419922-0.04102zm7.6992188 6.099609h4.5117192c1.319998 0 2.418828 1.000314 2.548828 2.320313 0.04 0.349999 0.03047 0.659766-0.01953 1.009765-0.06 0.42-0.201172 0.75961-0.451172 1.09961-0.469999 0.639999-1.139688 1.001015-1.929687 1.041015-0.579999 0.03-1.058672 0.03906-1.638672 0.03906h-3.0214862z"/>
   <path d="m111.41016 33.910156c-0.73 0-1.34055 0.05016-2.06055 0.160156-2.08 0.33-3.76906 1.159143-5.28906 2.619141-1.63 1.559999-2.51071 3.410159-2.72071 5.660156-0.12 1.379999-0.0204 2.570392 0.34961 3.900391 0.57 2.049998 1.64032 3.629923 3.32032 4.919922 1.10999 0.849999 2.21008 1.360156 3.58007 1.660156 0.97 0.21 1.81079 0.300781 2.80078 0.300781 0.99 0 1.82883-0.09078 2.79883-0.300781 1.37-0.3 2.47008-0.810157 3.58008-1.660156 1.69-1.289999 2.76031-2.869924 3.32031-4.919922 0.37-1.329999 0.47961-2.520392 0.34961-3.900391-0.2-2.249997-1.08875-4.100157-2.71875-5.660156-1.52-1.459998-3.21101-2.299141-5.29101-2.619141h0.041c-0.72-0.109999-1.33054-0.160156-2.06054-0.160156zm-0.0625 4.667969c0.50918-0.0069 1.02492 0.131641 1.48242 0.431641 0.32 0.209999 0.54976 0.439766 0.75976 0.759765 0.37 0.56 0.58094 1.100001 0.71094 1.75 0.25 1.259999 0.27008 2.370392 0.0801 3.650391-0.1 0.639999-0.25172 1.16-0.51172 1.75-0.62 1.379998-2.22938 1.98914-3.60937 1.36914-0.64-0.289999-1.07915-0.729141-1.36915-1.36914-0.25999-0.59-0.41976-1.110001-0.50976-1.75-0.19-1.269999-0.16992-2.380392 0.0801-3.650391 0.13-0.659999 0.34898-1.19 0.70898-1.75 0.5-0.762499 1.3291-1.179883 2.17774-1.191406z"/>
   <path d="m72.650391 33.921875c-1.233749-0.025-2.471017 0.07859-3.791016 0.308594-0.739999 0.13-1.348829 0.309844-2.048828 0.589843-1.609999 0.66-2.710469 1.869299-3.230469 3.529297-0.2 0.64-0.249922 1.211095-0.169922 1.871094 0.01 0.12 0.03961 0.220078 0.09961 0.330078l6.099609 0.148438c-0.02-0.39 0.02992-0.720079 0.169922-1.080078 0.2-0.56 0.590391-0.948438 1.150391-1.148438 0.819999-0.3 1.609453-0.311015 2.439453-0.04102 0.549999 0.179999 0.931562 0.571094 1.101562 1.121093 0.11 0.34 0.04961 0.678751-0.150391 0.96875-0.179999 0.26-0.401172 0.431016-0.701171 0.541016-0.18 0.07-0.339532 0.119922-0.519532 0.169922-0.849999 0.23-1.569454 0.379297-2.439453 0.529297-0.689999 0.11-1.259454 0.219375-1.939453 0.359375-0.919999 0.189999-1.689845 0.391641-2.589844 0.68164-0.819999 0.27-1.461563 0.638751-2.101562 1.21875-0.819999 0.75-1.289219 1.650001-1.449219 2.75-0.1 0.74-0.07992 1.381329 0.08008 2.111328 0.43 1.889998 1.739611 3.290079 3.59961 3.830079 2.059998 0.599999 4.000002 0.499217 6-0.300782 0.969999-0.389999 1.71086-0.930235 2.380859-1.740234 0.13 0.439999 0.260156 0.81 0.410156 1.25 0.08 0.24 0.199141 0.429141 0.369141 0.61914h6.720703c-0.29-0.449999-0.430703-0.899688-0.470703-1.429687l-0.0098 0.0098c-0.1-1.499999-0.159453-2.759767-0.189453-4.259766-0.04-1.969998-0.06008-3.629611-0.08008-5.599609 0-1.059999-0.120625-1.960236-0.390625-2.990235-0.35-1.349998-1.139611-2.368829-2.349609-3.048828-0.73-0.409999-1.41047-0.659844-2.230469-0.839844-1.304999-0.279999-2.535783-0.433984-3.769531-0.458984zm2.060547 10.447266c0.08 0.659999 0.07851 1.230625-0.02148 1.890625-0.07 0.479999-0.208516 0.881016-0.478515 1.291015-0.31 0.47-0.690939 0.799297-1.210938 1.029297-0.48 0.21-0.919219 0.33086-1.449219 0.38086-0.439999 0.04-0.820235 0.0084-1.240234-0.101563-0.34-0.1-0.611329-0.259532-0.861328-0.519531-0.21-0.22-0.328672-0.459766-0.388672-0.759766-0.1-0.459999 0.05016-0.899219 0.410156-1.199219 0.24-0.199999 0.469532-0.341172 0.769531-0.451171 0.71-0.26 1.309064-0.460157 2.039063-0.660157 0.879999-0.25 1.601641-0.510391 2.431641-0.90039z"/>
   <path d="m31.951172 33.921875c-1.233749-0.025-2.471017 0.07859-3.791016 0.308594-0.739999 0.13-1.350782 0.309844-2.050781 0.589843-1.609998 0.66-2.708516 1.869299-3.228516 3.529297-0.199999 0.64-0.249921 1.211095-0.169921 1.871094 0.01 0.12 0.03961 0.220078 0.09961 0.330078l6.099609 0.148438c-0.02-0.39 0.03992-0.720079 0.169922-1.080078 0.2-0.56 0.590391-0.948438 1.150391-1.148438 0.819999-0.3 1.609454-0.311015 2.439453-0.04102 0.549999 0.179999 0.929609 0.571094 1.099609 1.121093 0.11 0.34 0.04961 0.678751-0.15039 0.96875-0.18 0.26-0.399219 0.431016-0.699219 0.541016-0.18 0.07-0.339532 0.119922-0.519531 0.169922-0.85 0.23-1.569454 0.379297-2.439453 0.529297-0.68 0.11-1.261407 0.219375-1.941407 0.359375-0.919999 0.189999-1.689844 0.391641-2.589843 0.68164-0.82 0.27-1.459611 0.638751-2.09961 1.21875-0.819999 0.75-1.289219 1.650001-1.449219 2.75-0.11 0.74-0.07992 1.381329 0.08008 2.111328 0.429999 1.889998 1.739611 3.290079 3.599609 3.830079 2.059998 0.599999 4.000002 0.499217 6-0.300782 0.969999-0.389999 1.708907-0.930235 2.378906-1.740234 0.13 0.439999 0.250157 0.81 0.410156 1.25 0.08 0.24 0.201094 0.429141 0.371094 0.61914h6.71875c-0.29-0.449999-0.42875-0.899688-0.46875-1.429687l-0.0098 0.0098c-0.1-1.499999-0.161407-2.759767-0.191407-4.259766-0.04-1.969998-0.06008-3.629611-0.08008-5.599609 0-1.059999-0.118672-1.960236-0.388672-2.990235-0.349999-1.349998-1.141563-2.368829-2.351562-3.048828-0.73-0.409999-1.408517-0.659844-2.228516-0.839844-1.304999-0.279999-2.535782-0.433984-3.769531-0.458984zm2.058594 10.447266c0.08 0.659999 0.08047 1.230625-0.01953 1.890625-0.07 0.479999-0.210469 0.881016-0.480468 1.291015-0.31 0.47-0.688985 0.799297-1.208985 1.029297-0.479999 0.21-0.921172 0.33086-1.451172 0.38086-0.439999 0.04-0.820234 0.0084-1.240234-0.101563-0.34-0.1-0.619375-0.259532-0.859375-0.519531-0.21-0.22-0.330625-0.459766-0.390625-0.759766-0.1-0.459999 0.05016-0.899219 0.410156-1.199219 0.24-0.199999 0.469532-0.341172 0.769531-0.451171 0.71-0.26 1.311017-0.460157 2.041016-0.660157 0.879999-0.25 1.599688-0.510391 2.429688-0.90039z"/>
  </g>
 </g>
</svg>
